<svg xmlns="http://www.w3.org/2000/svg" viewBox="0 0 64 64" role="img" aria-label="WeChat">
  <path fill="#fff" d="M25.7 14.5c-11.7 0-21.2 7.6-21.2 17 0 5.4 3.2 10.3 8.2 13.4l-1.8 6.2 7.3-3.6c2.3.7 4.8 1.1 7.5 1.1 1.3 0 2.6-.1 3.8-.3-.7-1.7-1.1-3.5-1.1-5.4 0-8.5 8.1-15.4 18.2-15.4h.5c-2.3-7.4-10.9-13-21.4-13Zm-7.4 10.2c1.7 0 3.1 1.3 3.1 2.9s-1.4 2.9-3.1 2.9-3.1-1.3-3.1-2.9 1.4-2.9 3.1-2.9Zm14.8 0c1.7 0 3.1 1.3 3.1 2.9s-1.4 2.9-3.1 2.9-3.1-1.3-3.1-2.9 1.4-2.9 3.1-2.9Z"/>
  <path fill="#fff" d="M46.6 31.2c-8.7 0-15.8 5.6-15.8 12.6s7.1 12.6 15.8 12.6c1.9 0 3.8-.3 5.5-.8l5.4 2.7-1.3-4.6c3.8-2.3 6.1-5.9 6.1-9.9 0-7-7-12.6-15.7-12.6Zm-5.6 7.6c1.3 0 2.3 1 2.3 2.2s-1 2.2-2.3 2.2-2.3-1-2.3-2.2 1-2.2 2.3-2.2Zm11.1 0c1.3 0 2.3 1 2.3 2.2s-1 2.2-2.3 2.2-2.3-1-2.3-2.2 1-2.2 2.3-2.2Z"/>
</svg>
