<svg xmlns="http://www.w3.org/2000/svg" viewBox="0 0 64 64" role="img" aria-label="Pink mascot favicon">
  <defs>
    <radialGradient id="body" cx="32%" cy="18%" r="78%">
      <stop offset="0" stop-color="#ffd0d8" />
      <stop offset="0.46" stop-color="#f48a9f" />
      <stop offset="1" stop-color="#dd657c" />
    </radialGradient>
    <linearGradient id="shadow" x1="14" x2="50" y1="54" y2="54">
      <stop offset="0" stop-color="#b94358" stop-opacity="0.3" />
      <stop offset="0.5" stop-color="#8e2637" stop-opacity="0.16" />
      <stop offset="1" stop-color="#b94358" stop-opacity="0.3" />
    </linearGradient>
    <filter id="soft" x="-20%" y="-20%" width="140%" height="140%">
      <feDropShadow dx="0" dy="2" stdDeviation="2.2" flood-color="#1f0d14" flood-opacity="0.28" />
    </filter>
  </defs>
  <path
    d="M7.5 36.8C7.5 20.1 18.4 9.2 32 9.2s24.5 10.9 24.5 27.6c0 13-9.4 17.9-24.5 17.9S7.5 49.8 7.5 36.8Z"
    fill="url(#body)"
    filter="url(#soft)"
  />
  <path d="M12.5 47.6c4.1 5 11.8 7.1 19.5 7.1s15.4-2.1 19.5-7.1c-4.9 2.2-11.6 3.2-19.5 3.2s-14.6-1-19.5-3.2Z" fill="url(#shadow)" />
  <ellipse cx="24.2" cy="34.7" rx="4.2" ry="7.2" fill="#291119" />
  <ellipse cx="39.8" cy="34.7" rx="4.2" ry="7.2" fill="#291119" />
  <ellipse cx="22.8" cy="31.2" rx="1.25" ry="2" fill="#4c2028" opacity="0.5" />
  <ellipse cx="38.4" cy="31.2" rx="1.25" ry="2" fill="#4c2028" opacity="0.5" />
</svg>
